<?xml version="1.0" encoding="UTF-8"?>
<svg xmlns="http://www.w3.org/2000/svg" viewBox="218.627 138.876 526.623 553.556" role="img" aria-labelledby="logo-title">
  <title id="logo-title">HRS Structural Consultants</title>
  <g transform="translate(0 765.354) scale(1 -1)">
    <g>
    <g transform="matrix(1 0 0 1 667.1406 356.5457)">
      <path fill="#000000" fill-rule="nonzero" d="M 0 0 C 4.845 -0.265 77.859 -26.72 77.859 -30.452 C 16.228 -13.749 -64.073 -13.452 -104.927 -13.452 L -104.927 -0.729 C -99.842 -0.504 -94.503 -0.267 -88.137 0.016 L -88.137 12.923 C -88.136 57.324 -88.049 101.726 -88.249 146.127 C -88.272 151.269 -86.94 154.304 -81.155 156.208 C -73.7 158.662 -66.661 162.126 -57.729 165.875 L -57.729 -0.156 C -56.714 -0.16 -55.7 -0.164 -54.687 -0.168 L -54.687 166.063 C -43.806 161.669 -34.666 158.21 -25.851 154.183 C -24.436 153.536 -23.932 150.356 -23.915 148.341 C -23.746 127.476 -23.417 106.602 -23.953 85.747 C -24.101 80.027 -21.418 78.351 -16.333 77.256 C -10.938 76.094 -3.317 76.15 -0.854 73.03 C 1.892 69.556 -0.019 63.102 -0.011 57.945 C 0.018 38.879 0 19.813 0 0"/>
    </g>
    <g transform="matrix(1 0 0 1 384.3765 482.7406)">
      <path fill="#000000" fill-rule="nonzero" d="M 0 0 C 14.498 -5.921 27.747 -11.117 40.689 -16.866 C 42.479 -17.661 43.588 -21.185 43.601 -23.452 C 43.786 -55.089 43.726 -86.728 43.725 -118.367 L 43.725 -126.32 L 67.195 -126.32 L 67.195 -139.358 C 9.616 -139.358 -87.282 -139.944 -165.376 -155.944 C -165.376 -151.838 -95.517 -126.38 -89.454 -126.38 C -89.454 -112.766 -88.05 -99.663 -89.812 -86.91 C -91.978 -71.236 -86.366 -61.861 -69.112 -58.023 C -65.347 -57.186 -61.919 -55.134 -57.137 -53.143 C -57.137 -57.547 -57.137 -61.021 -57.136 -64.495 C -57.131 -83.133 -57.205 -101.773 -57 -120.41 C -56.978 -122.344 -55.296 -124.264 -54.384 -126.191 C -53.641 -124.324 -52.267 -122.461 -52.251 -120.589 C -52.083 -101.054 -52.132 -81.516 -52.121 -61.979 C -52.12 -59.318 -52.121 -56.656 -52.121 -53.112 C -37.232 -57.017 -23.133 -60.714 -8.58 -64.531 L -8.58 -125.851 C -5.728 -126.042 -3.39 -126.2 0 -126.426 Z"/>
    </g>
    <g transform="matrix(1 0 0 1 513.9287 369.4647)">
      <path fill="#000000" fill-rule="nonzero" d="M 0 0 C -1.758 -4.521 -0.512 -6.497 4.438 -6.305 C 8.187 -6.158 11.957 -6.117 15.7 -6.305 C 21.677 -6.604 22.33 -3.986 20.515 0.885 C 13.594 0.587 6.724 0.29 0 0 M -52.128 0.588 C -71.287 2.458 -73.98 1.666 -72.78 -5.338 L -52.128 -5.338 Z M -52.301 26.419 C -72.015 26.283 -74.285 25.38 -72.399 18.056 C -65.88 18.632 -59.277 19.216 -52.301 19.833 Z M -52.735 77.5 C -72.642 73.75 -74.546 72.658 -72.728 66.026 C -52.118 69.569 -51.303 70.037 -52.735 77.5 M -52.619 90.348 C -73.309 85.337 -74.401 84.652 -72.591 78.002 C -48.056 84.202 -50.648 83.792 -52.619 90.348 M -52.214 64.799 C -75.67 60.051 -75.956 60.415 -72.479 53.695 C -65.846 55.188 -59.158 56.695 -52.214 58.258 Z M -52.247 39.344 C -75.381 36.588 -75.495 36.803 -72.881 29.941 C -66.168 30.808 -59.342 31.689 -52.247 32.606 Z M -52.164 52.179 C -76.426 48.108 -75.521 48.645 -72.531 41.847 C -65.667 43.117 -58.741 44.398 -51.751 45.691 C -51.913 48.232 -52.023 49.964 -52.164 52.179 M -51.829 7.277 C -52.065 9.836 -52.238 11.71 -52.437 13.867 C -59.662 13.482 -66.306 13.129 -73.298 12.757 L -73.298 6.528 C -67.826 6.528 -62.858 6.475 -57.894 6.558 C -56.18 6.586 -54.474 6.951 -51.829 7.277 M -1.088 11.914 C -0.687 9.166 -0.421 7.335 -0.147 5.455 C 5.526 5.731 10.498 6.202 15.464 6.159 C 21.716 6.104 22.61 8.529 20.214 13.446 C 13.369 12.954 6.718 12.476 -1.088 11.914 M -1.556 112.356 C 19.421 119.257 21.945 121.106 20.046 128.631 C 13.348 122.92 1.243 124.106 -1.556 112.356 M -0.055 29.064 C 7.233 30.146 14.009 31.151 20.907 32.175 L 20.907 38.269 C 5.859 38.722 -0.809 36.022 -0.055 29.064 M 20.786 64.122 C 1.072 61.335 -0.96 60.305 -0.034 53.768 C 15.783 54.267 21.531 57.003 20.786 64.122 M 20.724 115.493 C -1.085 107.593 -1.085 107.593 -0.061 100.959 C 19.106 106.203 21.825 108.041 20.724 115.493 M 20.605 76.541 C 5.277 75.204 -1.404 71.503 0.262 65.271 C 22.62 70.479 23.195 69.863 20.605 76.541 M 20.883 26.228 C 13.502 25.384 6.631 24.598 -0.756 23.754 C -0.59 21.361 -0.461 19.499 -0.334 17.669 C 20.449 17.805 21.465 18.178 20.883 26.228 M 21.872 102.499 C 2.604 98.146 -1.467 95.431 0.7 87.477 C 6.424 94.07 19.772 90.066 21.872 102.499 M -0.199 41.483 C 22.162 44.695 23.309 44.037 20.718 51.024 C 4.687 50.493 -0.621 48.208 -0.199 41.483 M 22.249 90.019 C 1.226 85.404 -1.497 83.7 0.461 76.204 C 6.895 81.43 19.583 77.665 22.249 90.019 M 52.758 18.09 C 54.625 22.486 53.665 24.713 48.838 25.136 C 44.851 25.485 40.791 25.721 36.956 26.646 C 35.267 27.054 34.056 29.047 32.628 30.32 C 33.126 30.916 33.624 31.511 34.123 32.106 C 40.256 31.437 46.389 30.767 52.649 30.083 C 55.234 34.877 53.016 36.745 47.999 37.309 C 44.521 37.7 40.935 37.98 37.677 39.015 C 35.693 39.645 34.243 41.614 32.553 42.982 C 33.025 43.589 33.497 44.196 33.97 44.803 C 40.261 43.823 46.552 42.843 52.854 41.861 C 55.102 46.603 53.124 48.727 48.053 49.447 C 44.352 49.973 40.571 50.523 37.105 51.714 C 35.294 52.336 34.085 54.362 32.604 55.754 C 33.107 56.379 33.609 57.004 34.112 57.629 C 40.308 56.326 46.502 55.022 52.781 53.701 C 54.78 57.712 53.96 60.218 48.993 61.224 C 45.086 62.015 41.093 62.771 37.451 64.188 C 35.485 64.953 34.178 67.07 32.573 68.577 C 33.092 69.14 33.61 69.703 34.129 70.265 C 40.306 68.725 46.483 67.185 52.791 65.611 C 54.723 69.72 53.743 72.196 48.967 73.35 C 44.858 74.342 40.684 75.333 36.853 76.929 C 35.009 77.697 33.891 79.858 32.444 81.389 C 32.95 81.943 33.456 82.497 33.962 83.051 C 40.216 81.217 46.47 79.384 52.762 77.539 C 54.859 81.97 53.248 84.188 48.75 85.437 C 44.689 86.564 40.621 87.847 36.863 89.59 C 35.063 90.426 33.973 92.486 32.561 93.992 C 33.111 94.555 33.662 95.119 34.214 95.682 C 40.388 93.583 46.562 91.484 52.767 89.375 C 54.95 93.892 53.223 96.079 48.833 97.451 C 44.826 98.703 40.803 100.121 37.176 102.052 C 35.266 103.069 34.188 105.337 32.733 107.041 C 33.299 107.496 33.863 107.951 34.428 108.405 C 40.564 106.009 46.701 103.612 52.888 101.196 C 54.783 105.434 53.509 107.838 49.046 109.365 C 44.848 110.802 40.685 112.516 36.913 114.677 C 35.02 115.763 34.033 118.115 32.636 119.894 C 33.175 120.303 33.714 120.713 34.253 121.122 C 40.27 118.511 46.286 115.9 52.563 113.176 C 54.859 116.941 54.011 119.406 49.772 121.143 C 46.359 122.541 43.078 124.205 39.772 125.806 C 32.287 129.432 32.296 129.446 34.354 138.228 C 40.995 134.446 47.755 131 53.918 126.845 C 55.785 125.586 56.84 122.372 56.85 120.049 C 57.044 76.62 57.023 33.189 57.063 -10.24 C 57.063 -11.104 57.243 -11.967 57.39 -13.285 C 60.954 -13.525 64.348 -13.753 68.111 -14.006 L 68.111 -26.668 L -90.791 -26.668 L -90.791 -14.031 C -87.55 -13.759 -84.636 -13.515 -80.729 -13.187 L -80.729 -5.835 C -80.731 23.124 -80.618 52.083 -80.851 81.04 C -80.889 85.752 -79.481 88.28 -74.305 89.932 C -64.006 93.218 -53.973 97.172 -42.416 101.363 L -42.416 -13.495 C -41.669 -13.57 -40.922 -13.646 -40.175 -13.722 C -39.618 -11.29 -39.06 -8.858 -38.345 -5.741 L -19.059 -5.741 L -19.059 0.005 C -25.011 3.797 -34.59 -2.816 -40.782 6.234 L -19.211 6.234 L -19.211 12.441 C -25.627 14.75 -34.353 11.552 -39.713 15.957 L -38.303 19.586 C -32.146 19.216 -25.99 18.847 -19.2 18.438 C -19.042 20.716 -18.912 22.579 -18.797 24.214 C -25.452 27.644 -34.877 23.151 -39.573 29.726 C -39.341 30.536 -39.109 31.346 -38.876 32.156 C -32.529 31.677 -26.182 31.198 -19.245 30.675 C -19.075 32.721 -18.919 34.585 -18.803 35.982 C -24.845 40.635 -35.301 35.105 -39.236 42.556 C -38.929 43.378 -38.622 44.201 -38.314 45.024 C -32.227 44.274 -26.14 43.524 -19.349 42.688 C -19.077 44.686 -18.826 46.534 -18.608 48.136 C -24.795 52.541 -35.251 48.333 -39.442 55.195 C -39.042 56.033 -38.641 56.871 -38.239 57.709 C -32.142 56.781 -26.045 55.854 -19.753 54.896 C -17.514 59.172 -18.396 61.646 -23.925 62.336 C -27.636 62.799 -31.443 63.332 -34.886 64.555 C -36.834 65.248 -38.133 67.4 -39.724 68.895 C -39.193 69.411 -38.662 69.928 -38.131 70.444 C -32.089 69.318 -26.046 68.192 -19.774 67.024 C -17.107 71.764 -19.093 74 -24.424 74.833 C -27.877 75.373 -31.457 75.794 -34.641 76.989 C -36.669 77.75 -38.078 79.83 -39.765 81.318 C -39.261 81.918 -38.758 82.518 -38.255 83.117 C -32.072 81.789 -25.89 80.461 -19.59 79.108 C -17.779 83.205 -18.32 85.865 -23.369 86.789 C -25.573 87.191 -27.716 87.861 -29.882 88.425 C -39.517 90.933 -39.516 90.935 -38.516 101.098 C -31.353 98.745 -24.294 96.783 -17.677 93.985 C -16.14 93.335 -15.484 89.841 -15.475 87.652 C -15.331 56.711 -15.37 25.769 -15.364 -5.173 L -15.364 -12.901 C -7.941 -15.16 -8.315 -11.225 -8.318 -7.439 C -8.351 32.744 -8.205 72.928 -8.527 113.109 C -8.573 118.861 -6.725 121.956 -0.905 124.416 C 8.996 128.602 18.459 133.617 29.631 139.022 L 29.631 -13.374 C 30.481 -13.462 31.332 -13.549 32.183 -13.637 C 32.692 -11.3 33.203 -8.963 33.864 -5.939 L 52.452 -5.939 C 55.089 -0.626 53.369 1.277 47.757 0.998 C 44.26 0.824 40.648 0.731 37.255 1.344 C 35.505 1.658 34.119 3.592 32.569 4.795 C 33.007 5.352 33.443 5.909 33.881 6.467 L 53.051 6.467 C 54.644 11.08 53.483 13.284 48.101 13.125 C 44.607 13.022 40.974 13.092 37.632 13.87 C 35.668 14.326 34.152 16.32 32.435 17.623 L 33.768 19.442 C 39.924 19.003 46.08 18.565 52.758 18.09"/>
    </g>
    <g transform="matrix(1 0 0 1 375.6118 482.389)">
      <path fill="#000000" fill-rule="nonzero" d="M 0 0 L 0 -58.983 C -10.026 -56.429 -19.548 -54.167 -28.897 -51.433 C -30.217 -51.046 -31.399 -48.361 -31.438 -46.716 C -31.677 -36.866 -31.68 -27.007 -31.455 -17.156 C -31.416 -15.461 -30.409 -12.901 -28.989 -12.257 C -19.708 -8.042 -10.189 -4.245 0 0"/>
    </g>
    <g transform="matrix(1 0 0 1 536.1777 459.4837)">
      <path fill="#FFFFFF" fill-rule="nonzero" d="M 0 0 C -2.666 -12.354 -15.354 -8.589 -21.788 -13.815 C -23.746 -6.319 -21.023 -4.615 0 0"/>
    </g>
    <g transform="matrix(1 0 0 1 513.7295 410.9481)">
      <path fill="#FFFFFF" fill-rule="nonzero" d="M 0 0 C -0.422 6.725 4.887 9.009 20.917 9.541 C 23.508 2.554 22.361 3.212 0 0"/>
    </g>
    <g transform="matrix(1 0 0 1 535.8008 471.9632)">
      <path fill="#FFFFFF" fill-rule="nonzero" d="M 0 0 C -2.1 -12.432 -15.448 -8.428 -21.172 -15.021 C -23.339 -7.067 -19.269 -4.352 0 0"/>
    </g>
    <g transform="matrix(1 0 0 1 534.5342 446.0052)">
      <path fill="#FFFFFF" fill-rule="nonzero" d="M 0 0 C 2.59 -6.678 2.015 -6.062 -20.344 -11.269 C -22.01 -5.037 -15.328 -1.336 0 0"/>
    </g>
    <g transform="matrix(1 0 0 1 534.7148 433.5868)">
      <path fill="#FFFFFF" fill-rule="nonzero" d="M 0 0 C 0.745 -7.119 -5.003 -9.855 -20.82 -10.354 C -21.746 -3.817 -19.714 -2.787 0 0"/>
    </g>
    <g transform="matrix(1 0 0 1 505.9258 617.2249)">
      <path fill="#FFFFFF" fill-rule="nonzero" d="M 0 0 C -0.627 6.958 4.923 9.657 17.448 9.205 L 17.448 3.111 C 11.706 2.087 6.067 1.082 0 0"/>
    </g>
    <g transform="matrix(1 0 0 1 505.0674 310.0741)">
      <path fill="#FFFFFF" fill-rule="nonzero" d="M 0 0 C 6.496 0.562 12.032 1.04 17.729 1.532 C 19.724 -3.385 18.979 -5.809 13.776 -5.755 C 9.643 -5.712 5.505 -6.182 0.782 -6.458 C 0.555 -4.578 0.333 -2.748 0 0"/>
    </g>
    <g transform="matrix(1 0 0 1 744.75 337.5047)">
      <path fill="#000000" fill-rule="nonzero" d="M 0 0 C -0.063 17.165 -1.744 34.328 -5.146 51.146 C -8.581 67.951 -13.613 84.437 -20.345 100.198 C -33.732 131.75 -53.404 160.545 -77.798 184.452 C -89.993 196.408 -103.362 207.128 -117.587 216.516 L -122.992 219.926 L -125.694 221.63 C -126.592 222.204 -127.491 222.773 -128.429 223.28 L -133.991 226.424 L -136.771 227.996 L -138.16 228.782 L -139.586 229.502 L -145.283 232.388 L -148.131 233.831 L -149.557 234.547 L -151.015 235.198 L -156.845 237.802 C -158.798 238.646 -160.705 239.598 -162.708 240.323 C -178.467 246.754 -194.835 251.681 -211.529 254.954 C -228.225 258.228 -245.238 259.847 -262.25 259.833 C -279.261 259.789 -296.268 258.161 -312.95 254.853 C -329.633 251.553 -345.983 246.601 -361.716 240.14 C -393.185 227.207 -422.056 207.976 -446.203 183.953 C -470.324 159.911 -489.779 131.159 -502.964 99.704 C -509.553 83.979 -514.606 67.604 -518.044 50.886 C -521.474 34.165 -523.248 17.096 -523.381 0 C -523.529 -34.175 -517.123 -68.48 -503.984 -100.128 C -497.463 -115.96 -489.371 -131.147 -479.875 -145.406 C -470.39 -159.674 -459.403 -172.933 -447.292 -185.043 C -435.14 -197.115 -421.789 -207.973 -407.513 -217.412 C -393.222 -226.828 -378.015 -234.831 -362.181 -241.262 C -346.348 -247.692 -329.892 -252.554 -313.128 -255.753 C -296.365 -258.965 -279.298 -260.477 -262.25 -260.419 C -245.198 -260.343 -228.174 -258.586 -211.465 -255.284 C -194.757 -251.959 -178.389 -246.979 -162.628 -240.516 C -160.625 -239.786 -158.718 -238.83 -156.766 -237.981 L -150.937 -235.364 L -149.479 -234.71 L -148.054 -233.989 L -145.206 -232.54 L -139.511 -229.642 L -138.086 -228.918 L -136.697 -228.13 L -133.918 -226.554 L -128.357 -223.4 C -127.42 -222.892 -126.521 -222.32 -125.623 -221.746 L -122.922 -220.036 L -117.519 -216.617 C -103.306 -207.201 -89.935 -196.475 -77.744 -184.506 C -53.364 -160.572 -33.693 -131.773 -20.307 -100.214 C -13.575 -84.45 -8.549 -67.96 -5.117 -51.151 C -1.723 -34.33 -0.054 -17.166 0 0 M 0.5 0 C 0.514 -34.401 -6.164 -68.786 -19.1 -100.715 C -31.999 -132.662 -51.307 -162.054 -75.525 -186.726 C -99.735 -211.396 -128.934 -231.288 -160.943 -244.578 C -192.912 -257.974 -227.621 -264.714 -262.25 -264.581 C -296.885 -264.371 -331.434 -257.31 -363.247 -243.832 C -379.157 -237.108 -394.388 -228.812 -408.657 -219.12 C -422.944 -209.456 -436.279 -198.404 -448.438 -186.188 C -472.736 -161.746 -492.345 -132.634 -505.609 -100.801 L -507.993 -94.792 C -508.767 -92.781 -509.639 -90.807 -510.288 -88.749 L -512.373 -82.629 C -513.047 -80.583 -513.821 -78.567 -514.367 -76.48 L -516.165 -70.269 C -516.742 -68.192 -517.429 -66.144 -517.877 -64.033 L -519.367 -57.739 L -520.112 -54.592 L -520.48 -53.017 L -520.773 -51.427 C -524.224 -34.522 -526 -17.271 -526.119 0 C -526.31 34.531 -519.819 69.194 -506.629 101.224 C -493.529 133.275 -474.005 162.715 -449.528 187.278 C -425.07 211.853 -395.75 231.601 -363.712 244.953 C -331.689 258.362 -296.952 265.154 -262.25 265.166 C -227.551 265.064 -192.835 258.242 -160.863 244.77 C -128.857 231.399 -99.677 211.468 -75.471 186.779 C -51.267 162.081 -31.96 132.684 -19.062 100.73 C -6.127 68.795 0.537 34.401 0.5 0"/>
    </g>
    </g>
  </g>
  <g fill="#111111" text-anchor="middle">
    <text x="481.9" y="531" font-family="Arial Black, Arial, Helvetica, sans-serif" font-size="122.6" font-weight="900" textLength="260" lengthAdjust="spacingAndGlyphs">HRS</text>
    <text x="481.9" y="580" font-family="Georgia, Times New Roman, serif" font-size="50.9" font-weight="700" textLength="356" lengthAdjust="spacingAndGlyphs">structural</text>
    <text x="481.9" y="620" font-family="Arial, Helvetica, sans-serif" font-size="39.5" font-weight="700" textLength="274" lengthAdjust="spacingAndGlyphs">CONSULTANTS</text>
  </g>
</svg>
